<!-- Generated by IcoMoon.io -->
<svg version="1.1" xmlns="http://www.w3.org/2000/svg" width="32" height="32" viewBox="0 0 32 32">
<title>cow</title>
<path d="M6.168 0.192c-0.261 0.225-1.006 1.781-1.274 2.63-0.319 1.052-0.427 1.841-0.384 2.931 0.058 1.556 0.449 2.735 1.31 3.968 0.224 0.323 0.405 0.601 0.405 0.624 0 0.015-0.138 0.030-0.311 0.030-0.746 0-2.143 0.248-3.214 0.571-1.701 0.511-2.7 1.405-2.7 2.405 0 0.353 0.319 0.954 0.659 1.262 0.659 0.594 2.1 1.157 3.649 1.428 0.536 0.098 2.128 0.263 2.483 0.271 0.065 0 0.087 0.346 0.087 1.48 0 0.977 0.036 1.736 0.109 2.202 0.261 1.668 1.071 3.434 2.143 4.682l0.369 0.428-0.246 0.398c-0.362 0.564-0.499 0.992-0.543 1.631-0.109 1.533 0.847 2.893 2.693 3.848 3.518 1.826 8.985 1.112 11.033-1.443 0.999-1.247 1.115-2.675 0.326-3.968l-0.246-0.398 0.442-0.534c0.825-0.992 1.361-1.984 1.767-3.239 0.34-1.067 0.471-2.097 0.471-3.727 0-0.744 0.022-1.36 0.058-1.36 0.333-0.008 1.933-0.18 2.44-0.271 1.557-0.271 2.968-0.827 3.649-1.428 0.34-0.308 0.659-0.909 0.659-1.262 0-1.112-1.129-2.014-3.229-2.555-0.688-0.18-1.984-0.398-2.613-0.436l-0.297-0.023 0.326-0.451c0.405-0.549 0.912-1.616 1.108-2.315 0.55-2.021 0.21-4.374-0.97-6.62-0.492-0.932-0.833-1.15-1.231-0.782-0.152 0.143-0.217 0.338-0.362 1.045-0.449 2.247-1.281 4.028-2.498 5.343l-0.536 0.586h-11.453l-0.478-0.518c-1.187-1.308-2.049-3.156-2.498-5.411-0.145-0.706-0.21-0.902-0.362-1.045-0.239-0.218-0.471-0.21-0.738 0.023zM7.095 4.649c0.384 0.842 0.862 1.631 1.426 2.36l0.449 0.579-0.471 0.353c-0.442 0.338-0.854 0.819-1.173 1.368l-0.138 0.248-0.348-0.473c-1.187-1.638-1.484-3.645-0.854-5.726 0.304-1.007 0.297-0.999 0.572-0.128 0.13 0.421 0.376 1.060 0.536 1.42zM25.94 3.063c0.297 0.894 0.413 1.608 0.413 2.532 0 1.368-0.362 2.525-1.122 3.562l-0.34 0.466-0.253-0.428c-0.297-0.526-0.804-1.075-1.267-1.39-0.195-0.128-0.347-0.255-0.347-0.271 0-0.023 0.137-0.195 0.311-0.383 0.804-0.894 1.665-2.502 2.092-3.885 0.13-0.428 0.261-0.782 0.282-0.782s0.13 0.263 0.232 0.579zM22.241 8.556c0.804 0.338 1.571 1.308 1.694 2.127 0.065 0.451 0.217 0.736 0.413 0.782 0.087 0.015 0.688 0.068 1.332 0.113 2.288 0.15 4.090 0.639 4.858 1.308 0.355 0.316 0.319 0.579-0.109 0.902-0.854 0.646-2.7 1.135-4.583 1.217-1.245 0.053-1.506 0.090-1.672 0.263-0.123 0.128-0.138 0.263-0.138 1.623 0 1.841-0.094 2.901-0.326 3.757-0.326 1.165-0.97 2.405-1.723 3.284l-0.311 0.361-0.644-0.383c-0.782-0.466-1.513-0.767-2.389-0.969-2.744-0.654-5.777-0.256-7.819 1.029l-0.471 0.301-0.297-0.353c-0.405-0.473-1.043-1.488-1.296-2.059-0.557-1.293-0.724-2.345-0.724-4.659 0-2.247 0.116-2.082-1.549-2.172-2.128-0.113-3.75-0.496-4.771-1.142-0.753-0.481-0.63-0.909 0.42-1.413 1.006-0.488 2.389-0.781 4.308-0.902 1.491-0.098 1.528-0.12 1.665-0.842 0.203-1.090 1.006-1.991 2.020-2.277 0.253-0.075 1.672-0.090 6.016-0.083l5.683 0.015 0.413 0.173zM18.172 24.112c1.774 0.436 3.099 1.247 3.671 2.254 0.137 0.233 0.195 0.473 0.224 0.842 0.029 0.458 0.007 0.571-0.166 0.947-0.804 1.706-3.757 2.833-6.762 2.578-3.613-0.301-5.987-2.315-5.053-4.291 0.507-1.067 2.223-2.089 4.033-2.39 0.297-0.045 0.594-0.098 0.652-0.113s0.71-0.015 1.448 0c1.006 0.023 1.491 0.068 1.955 0.173z"></path>
<path d="M10.99 12.321c-0.449 0.15-0.753 0.346-1.158 0.751-0.355 0.338-0.384 0.736-0.087 0.977 0.275 0.225 0.536 0.195 0.869-0.098 0.42-0.368 0.746-0.518 1.151-0.518 0.405-0.008 0.717 0.135 1.151 0.518 0.333 0.293 0.594 0.323 0.869 0.098 0.145-0.12 0.188-0.218 0.188-0.443 0-0.233-0.051-0.338-0.304-0.594-0.717-0.721-1.781-0.999-2.679-0.691z"></path>
<path d="M19.432 12.313c-0.463 0.173-1.057 0.564-1.296 0.857-0.232 0.286-0.239 0.609 0 0.849 0.239 0.256 0.529 0.24 0.876-0.045 0.854-0.706 1.491-0.729 2.281-0.075 0.203 0.173 0.434 0.308 0.507 0.308 0.355 0 0.644-0.316 0.644-0.691 0-0.24-0.601-0.797-1.144-1.060-0.601-0.293-1.318-0.346-1.868-0.143z"></path>
<path d="M12.040 26.224c-0.21 0.203-0.282 0.496-0.174 0.729 0.080 0.188 0.203 0.263 0.702 0.398 0.224 0.060 0.319 0.135 0.398 0.323 0.101 0.248 0.109 0.248 0.666 0.27l0.557 0.023v-0.21c-0.007-0.301-0.174-0.736-0.391-1.037-0.253-0.346-0.695-0.571-1.195-0.616-0.34-0.030-0.427-0.015-0.565 0.12z"></path>
<path d="M18.954 26.171c-0.362 0.098-0.883 0.586-1.028 0.969-0.065 0.173-0.13 0.481-0.137 0.684-0.015 0.323 0.014 0.398 0.188 0.556 0.427 0.376 0.992 0.083 0.992-0.518 0-0.293 0.217-0.496 0.601-0.571 0.405-0.075 0.55-0.241 0.557-0.624 0-0.503-0.449-0.699-1.173-0.496z"></path>
</svg>
