<!-- Generated by IcoMoon.io -->
<svg version="1.1" xmlns="http://www.w3.org/2000/svg" width="32" height="32" viewBox="0 0 32 32">
<title>weight</title>
<path d="M14.177 0.547c-3.974 0.589-7.247 2.796-8.451 5.685-0.384 0.913-0.488 1.473-0.488 2.573 0.007 0.812 0.037 1.114 0.162 1.552 0.259 0.863 0.443 1.301 0.827 1.919l0.355 0.575-0.399 0.489c-3.154 3.924-3.502 9.444-0.872 13.793 0.982 1.632 2.585 3.234 4.152 4.169l0.465 0.273 12.743-0.108 0.303-0.165c1.056-0.597 2.549-1.926 3.383-3.004 1.256-1.639 2.076-3.551 2.423-5.621 0.118-0.74 0.118-2.933-0.007-3.63-0.377-2.149-1.182-3.989-2.453-5.621-0.244-0.309-0.436-0.568-0.436-0.589 0-0.014 0.133-0.237 0.288-0.489 0.362-0.575 0.687-1.315 0.864-1.962 0.199-0.719 0.199-2.516 0-3.234-0.709-2.552-2.837-4.679-5.843-5.851-0.842-0.331-2.283-0.683-3.213-0.798-0.864-0.101-2.999-0.079-3.804 0.043zM18.676 1.718c3.945 0.769 6.833 3.184 7.365 6.16 0.118 0.668 0.044 1.804-0.155 2.437-0.199 0.618-0.569 1.344-1.005 1.962-0.177 0.252-0.325 0.539-0.325 0.632s0.155 0.338 0.377 0.582c1.847 2.048 2.822 4.614 2.822 7.389-0.007 3.155-1.219 5.922-3.553 8.093-0.399 0.374-0.968 0.841-1.271 1.042l-0.554 0.374-12.211 0.050-0.473-0.302c-1.714-1.114-3.258-2.954-4.115-4.909-1.079-2.473-1.189-5.34-0.31-7.913 0.465-1.337 1.086-2.429 2.031-3.579 0.384-0.46 0.561-0.733 0.561-0.863 0-0.108-0.192-0.46-0.443-0.827-0.886-1.287-1.248-2.717-1.034-4.068 0.222-1.366 0.842-2.487 1.987-3.601 1.492-1.445 3.575-2.401 6.020-2.76 1.012-0.151 3.25-0.093 4.285 0.101z"></path>
<path d="M14.51 2.983c-3.029 0.496-5.4 2.178-6.176 4.384-0.177 0.496-0.207 0.69-0.207 1.402s0.030 0.906 0.207 1.402c0.111 0.316 0.318 0.755 0.458 0.978 0.384 0.618 0.554 0.64 1.315 0.18 1.138-0.697 2.445-1.207 3.804-1.488 0.916-0.187 2.674-0.259 3.671-0.144 1.559 0.18 3.25 0.74 4.602 1.538 0.384 0.223 0.776 0.41 0.872 0.41 0.561 0 1.278-1.617 1.278-2.875 0-2.796-2.674-5.189-6.464-5.786-0.805-0.129-2.585-0.129-3.361 0zM18.166 4.133c1.271 0.273 2.438 0.791 3.317 1.473 1.182 0.913 1.817 2.185 1.714 3.414-0.037 0.489-0.222 1.15-0.332 1.222-0.029 0.014-0.443-0.158-0.916-0.388-0.983-0.474-2.098-0.855-3.228-1.1-0.687-0.144-0.975-0.165-2.512-0.158-1.514 0-1.832 0.022-2.489 0.158-1.138 0.244-2.024 0.546-3.117 1.064-1.101 0.525-1.042 0.532-1.241-0.115-0.258-0.841-0.096-1.955 0.406-2.796 0.266-0.446 0.997-1.186 1.529-1.553 1.012-0.697 1.899-1.013 3.804-1.358 0.391-0.072 2.563 0.029 3.066 0.137z"></path>
<path d="M16.962 13.405c-0.207 0.259-0.207 0.503 0.007 0.712 0.14 0.137 0.281 0.173 0.79 0.208 0.99 0.072 1.935 0.359 2.785 0.848 0.606 0.359 1.529 1.229 1.943 1.854 0.613 0.898 1.034 2.185 1.034 3.134 0 0.331 0.029 0.431 0.185 0.575 0.236 0.237 0.547 0.237 0.776 0 0.163-0.165 0.17-0.208 0.125-0.913-0.207-3.479-3.184-6.382-6.744-6.577l-0.739-0.043-0.163 0.201z"></path>
</svg>
